<?xml version="1.0" encoding="utf-8"?>
<!-- Generator: Adobe Illustrator 22.1.0, SVG Export Plug-In . SVG Version: 6.00 Build 0)  -->
<svg version="1.1" id="Calque_1" xmlns="http://www.w3.org/2000/svg" xmlns:xlink="http://www.w3.org/1999/xlink" x="0px" y="0px"
	 viewBox="0 0 1024 1024" style="enable-background:new 0 0 1024 1024;" xml:space="preserve">
<style type="text/css">
	.st0{fill:none;stroke:#FFFFFF;stroke-width:60;stroke-miterlimit:10;}
	.st1{fill:none;stroke:#FFFFFF;stroke-width:40;stroke-miterlimit:10;}
</style>
<path class="st0" d="M887,587V437H761c-5-16.8-11.7-32.9-19.9-48l89.1-89.1L724.1,193.8L635,282.9c-15.2-8.2-31.2-14.9-48-19.9V137
	H437v126c-16.8,5-32.9,11.7-48,19.9l-89.1-89.1L193.8,299.9l89.1,89.1c-8.2,15.2-14.9,31.2-19.9,48H137v150h126
	c5,16.8,11.7,32.9,19.9,48l-89.1,89.1l106.1,106.1l89.1-89.1c15.2,8.2,31.2,14.9,48,19.9v126h150V761c16.8-5,32.9-11.7,48-19.9
	l89.1,89.1l106.1-106.1L741.1,635c8.2-15.2,14.9-31.2,19.9-48H887z"/>
<circle class="st1" cx="512" cy="512" r="87.5"/>
</svg>
